<svg class="mt-4 h-8 md:h-10" viewBox="0 0 702 166" version="1.1" xmlns="http://www.w3.org/2000/svg"><defs><linearGradient x1="-19.2968096%" y1="149.135409%" x2="119.594683%" y2="-36.6211191%" id="linearGradient-1"><stop stop-color="#D53FE8" offset="0%"></stop><stop stop-color="#0CF3B3" offset="100%"></stop></linearGradient><linearGradient x1="19.4121896%" y1="100%" x2="96.2177147%" y2="0%" id="linearGradient-2"><stop stop-color="#D53FE8" offset="0%"></stop><stop stop-color="#0CF3B3" offset="100%"></stop></linearGradient></defs><g id="Page-1" stroke="none" stroke-width="1" fill="none" fill-rule="evenodd"><g id="logo-outlined" transform="translate(-41.000000, -77.000000)"><g id="Group" transform="translate(51.000000, 87.000000)"><path d="M202.1,111.5 C210.633333,111.5 217.116667,109.783333 221.55,106.35 C225.983333,102.916667 228.2,98.0666667 228.2,91.8 C228.2,88.5333333 227.733333,85.75 226.8,83.45 C225.866667,81.15 224.516667,79.15 222.75,77.45 C220.983333,75.75 218.816667,74.2833333 216.25,73.05 C213.683333,71.8166667 210.766667,70.6 207.5,69.4 C205.633333,68.7333333 203.916667,68.0333333 202.35,67.3 C200.783333,66.5666667 199.416667,65.7666667 198.25,64.9 C197.083333,64.0333333 196.183333,63.05 195.55,61.95 C194.916667,60.85 194.6,59.5333333 194.6,58 C194.6,55.4666667 195.55,53.5 197.45,52.1 C199.35,50.7 202,50 205.4,50 C208.266667,50 211.05,50.3333333 213.75,51 C216.45,51.6666667 218.933333,52.6333333 221.2,53.9 L221.2,53.9 L225.1,43.7 C223.166667,42.5666667 220.516667,41.5166667 217.15,40.55 C213.783333,39.5833333 209.933333,39.1 205.6,39.1 C198.133333,39.1 192.233333,40.8833333 187.9,44.45 C183.566667,48.0166667 181.4,52.9333333 181.4,59.2 C181.4,62.2 181.916667,64.7666667 182.95,66.9 C183.983333,69.0333333 185.35,70.8666667 187.05,72.4 C188.75,73.9333333 190.716667,75.2166667 192.95,76.25 C195.183333,77.2833333 197.5,78.2333333 199.9,79.1 C202.3,79.9 204.433333,80.7166667 206.3,81.55 C208.166667,82.3833333 209.75,83.2833333 211.05,84.25 C212.35,85.2166667 213.35,86.3 214.05,87.5 C214.75,88.7 215.1,90.1333333 215.1,91.8 C215.1,94.6 214.066667,96.7666667 212,98.3 C209.933333,99.8333333 206.633333,100.6 202.1,100.6 C197.766667,100.6 194.066667,100.1 191,99.1 C187.933333,98.1 185.5,97.1 183.7,96.1 L183.7,96.1 L180,106.4 C180.8,106.866667 181.866667,107.383333 183.2,107.95 C184.533333,108.516667 186.116667,109.066667 187.95,109.6 C189.783333,110.133333 191.883333,110.583333 194.25,110.95 C196.616667,111.316667 199.233333,111.5 202.1,111.5 Z M269.575,111.5 C274.175,111.5 278.508333,110.733333 282.575,109.2 C286.641667,107.666667 290.191667,105.383333 293.225,102.35 C296.258333,99.3166667 298.658333,95.5333333 300.425,91 C302.191667,86.4666667 303.075,81.2333333 303.075,75.3 C303.075,69.3666667 302.175,64.15 300.375,59.65 C298.575,55.15 296.158333,51.3666667 293.125,48.3 C290.091667,45.2333333 286.541667,42.9333333 282.475,41.4 C278.408333,39.8666667 274.108333,39.1 269.575,39.1 C265.041667,39.1 260.741667,39.8666667 256.675,41.4 C252.608333,42.9333333 249.025,45.2333333 245.925,48.3 C242.825,51.3666667 240.375,55.15 238.575,59.65 C236.775,64.15 235.875,69.3666667 235.875,75.3 C235.875,81.2333333 236.775,86.4666667 238.575,91 C240.375,95.5333333 242.791667,99.3166667 245.825,102.35 C248.858333,105.383333 252.425,107.666667 256.525,109.2 C260.625,110.733333 264.975,111.5 269.575,111.5 Z M269.475,100.4 C266.275,100.4 263.408333,99.8 260.875,98.6 C258.341667,97.4 256.191667,95.7166667 254.425,93.55 C252.658333,91.3833333 251.308333,88.75 250.375,85.65 C249.441667,82.55 248.975,79.1 248.975,75.3 C248.975,71.5 249.441667,68.0666667 250.375,65 C251.308333,61.9333333 252.658333,59.3 254.425,57.1 C256.191667,54.9 258.341667,53.2 260.875,52 C263.408333,50.8 266.275,50.2 269.475,50.2 C272.608333,50.2 275.441667,50.8 277.975,52 C280.508333,53.2 282.658333,54.8833333 284.425,57.05 C286.191667,59.2166667 287.541667,61.85 288.475,64.95 C289.408333,68.05 289.875,71.5 289.875,75.3 C289.875,79.1 289.408333,82.55 288.475,85.65 C287.541667,88.75 286.191667,91.3833333 284.425,93.55 C282.658333,95.7166667 280.508333,97.4 277.975,98.6 C275.441667,99.8 272.608333,100.4 269.475,100.4 Z M360.05,110 L360.05,99.1 L328.85,99.1 L328.85,40.7 L316.25,40.7 L316.25,110 L360.05,110 Z M395.625,111.4 C401.025,111.4 405.791667,111 409.925,110.2 C414.058333,109.4 416.991667,108.666667 418.725,108 L418.725,108 L418.725,74.7 L406.125,74.7 L406.125,99.6 C405.191667,99.8666667 403.925,100.083333 402.325,100.25 C400.725,100.416667 398.825,100.5 396.625,100.5 C393.091667,100.5 390.008333,99.8833333 387.375,98.65 C384.741667,97.4166667 382.541667,95.7 380.775,93.5 C379.008333,91.3 377.675,88.65 376.775,85.55 C375.875,82.45 375.425,79.0333333 375.425,75.3 C375.425,67.4333333 377.308333,61.2833333 381.075,56.85 C384.841667,52.4166667 390.291667,50.2 397.425,50.2 C400.691667,50.2 403.808333,50.6166667 406.775,51.45 C409.741667,52.2833333 412.225,53.3 414.225,54.5 L414.225,54.5 L418.025,44.2 C417.558333,43.9333333 416.741667,43.5 415.575,42.9 C414.408333,42.3 412.925,41.7333333 411.125,41.2 C409.325,40.6666667 407.175,40.1833333 404.675,39.75 C402.175,39.3166667 399.325,39.1 396.125,39.1 C391.458333,39.1 387.058333,39.9 382.925,41.5 C378.791667,43.1 375.191667,45.45 372.125,48.55 C369.058333,51.65 366.641667,55.4333333 364.875,59.9 C363.108333,64.3666667 362.225,69.5 362.225,75.3 C362.225,81.1 363.025,86.2333333 364.625,90.7 C366.225,95.1666667 368.475,98.9333333 371.375,102 C374.275,105.066667 377.791667,107.4 381.925,109 C386.058333,110.6 390.625,111.4 395.625,111.4 Z M459.4,111.5 C464.133333,111.5 468.233333,110.816667 471.7,109.45 C475.166667,108.083333 478.016667,106.166667 480.25,103.7 C482.483333,101.233333 484.15,98.3333333 485.25,95 C486.35,91.6666667 486.9,88 486.9,84 L486.9,84 L486.9,40.7 L474.2,40.7 L474.2,82.8 C474.2,85.9333333 473.85,88.6166667 473.15,90.85 C472.45,93.0833333 471.45,94.9 470.15,96.3 C468.85,97.7 467.3,98.7333333 465.5,99.4 C463.7,100.066667 461.7,100.4 459.5,100.4 C457.3,100.4 455.316667,100.066667 453.55,99.4 C451.783333,98.7333333 450.25,97.7 448.95,96.3 C447.65,94.9 446.65,93.0833333 445.95,90.85 C445.25,88.6166667 444.9,85.9333333 444.9,82.8 L444.9,82.8 L444.9,40.7 L432.2,40.7 L432.2,84 C432.2,88 432.733333,91.6666667 433.8,95 C434.866667,98.3333333 436.516667,101.233333 438.75,103.7 C440.983333,106.166667 443.8,108.083333 447.2,109.45 C450.6,110.816667 454.666667,111.5 459.4,111.5 Z M506.775,110 C507.708333,107.333333 508.658333,104.65 509.625,101.95 C510.591667,99.25 511.541667,96.5 512.475,93.7 L512.475,93.7 L541.675,93.7 C542.608333,96.5 543.575,99.2333333 544.575,101.9 C545.575,104.566667 546.541667,107.266667 547.475,110 L547.475,110 L561.075,110 C558.475,102.6 555.991667,95.7666667 553.625,89.5 C551.258333,83.2333333 548.958333,77.3 546.725,71.7 C544.491667,66.1 542.275,60.7666667 540.075,55.7 C537.875,50.6333333 535.608333,45.6333333 533.275,40.7 L533.275,40.7 L521.375,40.7 C519.041667,45.6333333 516.775,50.6333333 514.575,55.7 C512.375,60.7666667 510.158333,66.1 507.925,71.7 C505.691667,77.3 503.408333,83.2333333 501.075,89.5 C498.741667,95.7666667 496.275,102.6 493.675,110 L493.675,110 L506.775,110 Z M538.475,83.5 L515.675,83.5 C517.808333,77.5666667 519.858333,72.0666667 521.825,67 C523.791667,61.9333333 525.541667,57.6333333 527.075,54.1 C528.541667,57.5 530.275,61.7666667 532.275,66.9 C534.275,72.0333333 536.341667,77.5666667 538.475,83.5 L538.475,83.5 Z M581.85,110 L581.85,83.8 L589.85,83.8 C590.516667,83.8 591.316667,83.7666667 592.25,83.7 C593.516667,85.3 594.883333,87.1166667 596.35,89.15 C597.816667,91.1833333 599.3,93.35 600.8,95.65 C602.3,97.95 603.783333,100.316667 605.25,102.75 C606.716667,105.183333 608.083333,107.6 609.35,110 L609.35,110 L623.45,110 C622.25,107.4 620.883333,104.75 619.35,102.05 C617.816667,99.35 616.216667,96.7166667 614.55,94.15 C612.883333,91.5833333 611.25,89.2 609.65,87 C608.05,84.8 606.616667,82.9333333 605.35,81.4 C614.616667,78.0666667 619.25,71.7 619.25,62.3 C619.25,54.7666667 616.6,49.1666667 611.3,45.5 C606,41.8333333 598.35,40 588.35,40 C585.616667,40 582.516667,40.1166667 579.05,40.35 C575.583333,40.5833333 572.316667,41.0333333 569.25,41.7 L569.25,41.7 L569.25,110 L581.85,110 Z M587.35,73.6 L581.85,73.6 L581.85,51.2 C584.116667,51 586.583333,50.9 589.25,50.9 C591.716667,50.9 593.983333,51.0833333 596.05,51.45 C598.116667,51.8166667 599.9,52.4333333 601.4,53.3 C602.9,54.1666667 604.05,55.3333333 604.85,56.8 C605.65,58.2666667 606.05,60.0666667 606.05,62.2 C606.05,64.4666667 605.65,66.3333333 604.85,67.8 C604.05,69.2666667 602.866667,70.4333333 601.3,71.3 C599.733333,72.1666667 597.783333,72.7666667 595.45,73.1 C593.116667,73.4333333 590.416667,73.6 587.35,73.6 L587.35,73.6 Z M652.225,110.8 C658.091667,110.8 663.441667,110.083333 668.275,108.65 C673.108333,107.216667 677.241667,105.016667 680.675,102.05 C684.108333,99.0833333 686.758333,95.3833333 688.625,90.95 C690.491667,86.5166667 691.425,81.3 691.425,75.3 C691.425,69.1666667 690.491667,63.8833333 688.625,59.45 C686.758333,55.0166667 684.108333,51.35 680.675,48.45 C677.241667,45.55 673.125,43.4166667 668.325,42.05 C663.525,40.6833333 658.225,40 652.425,40 C649.625,40 646.425,40.1 642.825,40.3 C639.225,40.5 635.825,40.9666667 632.625,41.7 L632.625,41.7 L632.625,109 C635.825,109.733333 639.191667,110.216667 642.725,110.45 C646.258333,110.683333 649.425,110.8 652.225,110.8 Z M653.025,99.8 C650.958333,99.8 649.325,99.7833333 648.125,99.75 C646.925,99.7166667 645.958333,99.6666667 645.225,99.6 L645.225,99.6 L645.225,51.2 C646.825,51 649.491667,50.9 653.225,50.9 C661.758333,50.9 668.058333,53 672.125,57.2 C676.191667,61.4 678.225,67.4333333 678.225,75.3 C678.225,83.0333333 676.141667,89.05 671.975,93.35 C667.808333,97.65 661.491667,99.8 653.025,99.8 Z" id="SOLGUARD" fill="#394456" fill-rule="nonzero"></path><g id="shield-checkmark-outline" stroke-linecap="round" stroke-linejoin="round" stroke-width="20"><polyline id="Path" stroke="url(#linearGradient-1)" points="101 45 62.22 90 45 73.0546875"></polyline><path d="M145.684439,22.5913942 C114.301327,16.9619712 101.326224,12.7925481 73,0 C44.6737757,12.7925481 31.6986734,16.9619712 0.315561351,22.5913942 C-5.37003935,112.704279 67.5881504,143.820529 73,146 C78.4118496,143.820529 151.370039,112.704279 145.684439,22.5913942 Z" id="Path" stroke="url(#linearGradient-2)"></path></g></g></g></g></svg>